<?xml version="1.0" standalone="no"?><!DOCTYPE svg PUBLIC "-//W3C//DTD SVG 1.1//EN" "http://www.w3.org/Graphics/SVG/1.1/DTD/svg11.dtd"><svg t="1744881045294" class="icon" viewBox="0 0 1024 1024" version="1.1" xmlns="http://www.w3.org/2000/svg" p-id="3540" xmlns:xlink="http://www.w3.org/1999/xlink" width="200" height="200"><path d="M344.118 568.134H176.237c-61.814 0-111.921 50.108-111.921 111.922v167.881c0 61.814 50.107 111.921 111.92 111.921h167.882c61.814 0 111.921-50.107 111.921-111.92V680.055c0-61.814-50.107-111.922-111.92-111.922z m0 279.802H176.237v-167.88h167.881v167.88z m0-783.446H176.237c-61.814 0-111.921 50.107-111.921 111.92v167.882c0 61.814 50.107 111.921 111.92 111.921h167.882c61.814 0 111.921-50.107 111.921-111.92V176.41c0-61.814-50.107-111.921-111.92-111.921z m0 279.802H176.237V176.411h167.881v167.881z m503.644 223.842H679.881c-61.814 0-111.922 50.108-111.922 111.922v167.881c0 61.814 50.108 111.921 111.922 111.921h167.881c61.814 0 111.921-50.107 111.921-111.92V680.055c0-61.814-50.107-111.922-111.92-111.922z m0 279.802H679.881v-167.88h167.881v167.88z m0-783.446H679.881c-61.814 0-111.922 50.107-111.922 111.92v167.882c0 61.814 50.108 111.921 111.922 111.921h167.881c61.814 0 111.921-50.107 111.921-111.92V176.41c0-61.814-50.107-111.921-111.92-111.921z m0 279.802H679.881V176.411h167.881v167.881z" fill="#2869AC" p-id="3541"></path></svg>